# xmcd
#
# Track frame offsets:
#	150
#	17402
#	34215
#	66430
#	104525
#	140715
#	168002
#	191802
#	210097
#	234967
#	254470
#	273675
#	295622
#	311812
#
# Disc length: 4409 seconds
#
# Revision: 5
# Processed by: cddbd v1.5.2PL0 Copyright (c) Steve Scherf et al.
# Submitted via: EZCDAudioConverter 3.0.8.1
#
DISCID=cb11370e
DTITLE=Various Artist - CLASSICOS DOS BAILES VOL.3
DYEAR=1900
DGENRE=Funk
TTITLE0=M.V.P - DO IT TO ME
TTITLE1=BERNADETTE - YOUR ARE THE ONE
TTITLE2=FIREFLY - LOVE IS GONNA BE ON YOUR SIDE 
TTITLE3=MCL FEAT. FRANK S. - BLAME IT ON THE SAMBA
TTITLE4=VIZ ZEE - FUNKY BEE-BOP 
TTITLE5=MOSKWA TV - TELL ME, TELL ME
TTITLE6=TONY GARCIA FEAT. REINALD-O - MY SWEET LOVE 
TTITLE7=COUNT TO TWENTY - YOU ARE THE ONE
TTITLE8=DIMPLES D - SUCKER DJ
TTITLE9=RAY GUELL - GIVIN' UP
TTITLE10=TONY GARCIA FEAT. N.V - GIRL YOU HEAR ME CRYING 
TTITLE11=JOSSETE - IN A DREAM
TTITLE12=DEBBIE DEB - THERE'S A PARTY GOIN' ON 
TTITLE13=SEDUCTION - TWO TO MAKE IT RIGHT
EXTD=
EXTT0=
EXTT1=
EXTT2=
EXTT3=
EXTT4=
EXTT5=
EXTT6=
EXTT7=
EXTT8=
EXTT9=
EXTT10=
EXTT11=
EXTT12=
EXTT13=
PLAYORDER=
